<svg xmlns="http://www.w3.org/2000/svg" viewBox="0 0 1536 1024" fill="none">
  <defs>
    <filter id="paper">
      <feTurbulence type="fractalNoise" baseFrequency="0.85" numOctaves="2" seed="8" result="noise"/>
      <feColorMatrix in="noise" type="saturate" values="0"/>
      <feComponentTransfer>
        <feFuncA type="table" tableValues="0 0.05"/>
      </feComponentTransfer>
    </filter>
    <style>
      .bg { fill: #faf5ea; }
      .ink { stroke: #121212; stroke-width: 7; stroke-linecap: round; stroke-linejoin: round; fill: none; }
      .soft { stroke: #6a6a6a; stroke-width: 3; stroke-linecap: round; stroke-linejoin: round; fill: none; opacity: 0.7; }
      .fill-gray { fill: #ece6da; }
      .fill-red { fill: #f25d4b; }
      .fill-yellow { fill: #f2cb47; }
      .fill-paper { fill: #fffdf6; }
    </style>
  </defs>
  <rect width="1536" height="1024" class="bg"/>
  <rect width="1536" height="1024" filter="url(#paper)" opacity="0.7"/>

  <path class="soft" d="M116 112c56 16 88 22 132 18M126 158c58 14 92 20 138 14M102 202c64 18 114 20 164 8"/>
  <path class="soft" d="M1280 118c52 16 100 22 142 16M1268 170c58 12 108 18 152 12M1242 218c64 16 118 18 168 10"/>
  <path class="soft" d="M580 842c108 18 264 20 392 8"/>

  <g transform="translate(110 250)">
    <ellipse cx="185" cy="170" rx="128" ry="148" class="fill-gray" opacity="0.8"/>
    <path class="ink" d="M92 104c18-46 52-72 102-78 44-4 86 8 120 42 26 28 34 64 30 112-4 52-22 90-58 118-34 28-72 38-116 36-48-2-88-18-116-52-28-32-40-72-34-124 2-22 14-38 28-54"/>
    <path class="soft" d="M94 82c42-30 90-44 138-38M86 238c24 56 74 92 148 96"/>
    <circle cx="148" cy="164" r="29" class="fill-paper"/>
    <circle cx="238" cy="168" r="29" class="fill-paper"/>
    <circle cx="148" cy="164" r="29" class="ink"/>
    <circle cx="238" cy="168" r="29" class="ink"/>
    <circle cx="146" cy="166" r="11" fill="#121212"/>
    <circle cx="236" cy="170" r="11" fill="#121212"/>
    <path class="ink" d="M122 244c18-10 38-14 58-14 24 0 46 4 64 18M164 248c14 10 28 12 40 0"/>
    <path class="ink" d="M116 132c18-12 34-16 52-14M218 132c18-10 34-12 54-6"/>
    <path class="soft" d="M94 320c28 8 48 10 70 2M208 328c34 10 62 10 88 0"/>
    <path class="ink" d="M58 54c20-32 44-50 72-58M92 22c8-24 20-40 38-52M134 8c18-18 42-28 70-28M220 12c22-18 50-24 82-18"/>
    <path class="fill-red" d="M18 130c18-10 40-6 50 12 8 18 0 40-18 48-18 8-38 4-48-12-10-18-4-38 16-48Z"/>
    <path class="ink" d="M16 132c18-10 40-6 50 12 8 18 0 40-18 48-18 8-38 4-48-12-10-18-4-38 16-48Z"/>
    <path class="ink" d="M26 150c10-4 22-2 32 8M24 174c10 6 22 8 38 2"/>
    <path class="fill-yellow" d="M0 256l20-38 42 14-28 42Z"/>
    <path class="ink" d="M0 256l20-38 42 14-28 42Z"/>
    <path class="ink" d="M12 242c6-4 14-4 24 0M12 260c8 4 18 6 26 2"/>
  </g>

  <g transform="translate(1090 250)">
    <ellipse cx="170" cy="174" rx="120" ry="150" class="fill-gray" opacity="0.8"/>
    <path class="ink" d="M74 98c16-34 46-58 92-70 52-12 100-6 136 24 34 30 50 72 48 132-2 48-18 88-48 118-34 34-76 50-126 48-48-2-90-18-120-54-24-28-38-64-38-112 0-34 18-58 56-86"/>
    <circle cx="138" cy="166" r="24" class="fill-paper"/>
    <circle cx="228" cy="166" r="24" class="fill-paper"/>
    <circle cx="138" cy="166" r="24" class="ink"/>
    <circle cx="228" cy="166" r="24" class="ink"/>
    <circle cx="136" cy="168" r="9" fill="#121212"/>
    <circle cx="226" cy="168" r="9" fill="#121212"/>
    <path class="ink" d="M118 126c18-6 34-6 50 2M214 126c18-8 34-8 52 0"/>
    <path class="ink" d="M126 236c20-8 42-10 66-6 14 2 28 8 44 20M174 236c8 10 18 12 30 2"/>
    <path class="soft" d="M92 54c32-14 64-18 98-16M118 314c18 8 36 12 58 10M208 314c22 8 42 8 64 0"/>
    <path class="fill-red" d="M332 150c12-18 34-22 52-12 18 10 22 32 12 50-8 16-30 22-48 14-20-8-26-30-16-52Z"/>
    <path class="ink" d="M332 150c12-18 34-22 52-12 18 10 22 32 12 50-8 16-30 22-48 14-20-8-26-30-16-52Z"/>
    <path class="ink" d="M346 160c10-4 20-4 30 4M344 182c8 6 20 8 34 2"/>
    <path class="fill-yellow" d="M322 260l28-34 34 26-30 32Z"/>
    <path class="ink" d="M322 260l28-34 34 26-30 32Z"/>
    <path class="ink" d="M336 248c8 0 14 2 18 8M332 266c8 4 16 4 24 0"/>
  </g>

  <g transform="translate(676 716)">
    <ellipse cx="96" cy="86" rx="82" ry="76" class="fill-gray" opacity="0.5"/>
    <path class="ink" d="M40 44c22-20 46-28 74-28 40 0 72 14 92 46 16 24 18 54 6 88-14 38-42 58-88 64-36 4-66-4-92-30-24-24-32-52-22-90 4-18 14-34 30-50Z"/>
    <circle cx="86" cy="92" r="18" class="fill-paper"/>
    <circle cx="146" cy="92" r="18" class="fill-paper"/>
    <circle cx="86" cy="92" r="18" class="ink"/>
    <circle cx="146" cy="92" r="18" class="ink"/>
    <circle cx="86" cy="92" r="8" fill="#121212"/>
    <circle cx="146" cy="92" r="8" fill="#121212"/>
    <path class="ink" d="M74 144c14-8 28-10 44-8 12 2 24 8 36 18"/>
    <path class="soft" d="M34 34c18 2 36-2 54-12M146 20c20 2 38 10 54 24"/>
    <path class="fill-yellow" d="M-16 108l20-34 28 18-20 28Z"/>
    <path class="ink" d="M-16 108l20-34 28 18-20 28Z"/>
    <path class="fill-red" d="M192 40l24-26 22 26-22 22Z"/>
    <path class="ink" d="M192 40l24-26 22 26-22 22Z"/>
  </g>

  <path class="ink" d="M502 178h38M1050 178h34M738 132c10-12 24-18 44-18 16 0 32 6 46 18M726 900c28 8 58 12 92 12 42 0 84-6 126-18"/>
  <path class="soft" d="M650 152c40 18 96 18 136 0M660 870c80 24 172 24 250 0"/>
</svg>
