<svg xmlns="http://www.w3.org/2000/svg" viewBox="0 0 1536 1024" fill="none">
  <defs>
    <filter id="paper">
      <feTurbulence type="fractalNoise" baseFrequency="0.85" numOctaves="2" seed="8" result="noise"/>
      <feColorMatrix in="noise" type="saturate" values="0"/>
      <feComponentTransfer>
        <feFuncA type="table" tableValues="0 0.05"/>
      </feComponentTransfer>
    </filter>
    <style>
      .bg { fill: #faf5ea; }
      .ink { stroke: #121212; stroke-width: 7; stroke-linecap: round; stroke-linejoin: round; fill: none; }
      .soft { stroke: #6a6a6a; stroke-width: 3; stroke-linecap: round; stroke-linejoin: round; fill: none; opacity: 0.7; }
      .fill-gray { fill: #ece6da; }
      .fill-red { fill: #f25d4b; }
      .fill-yellow { fill: #f2cb47; }
      .fill-paper { fill: #fffdf6; }
    </style>
  </defs>
  <rect width="1536" height="1024" class="bg"/>
  <rect width="1536" height="1024" filter="url(#paper)" opacity="0.7"/>

  <path class="soft" d="M116 112c56 16 88 22 132 18M126 158c58 14 92 20 138 14M102 202c64 18 114 20 164 8"/>
  <path class="soft" d="M1280 118c52 16 100 22 142 16M1268 170c58 12 108 18 152 12M1242 218c64 16 118 18 168 10"/>
  <path class="soft" d="M580 842c108 18 264 20 392 8"/>

  <g transform="translate(1090 250)">
    <ellipse cx="170" cy="174" rx="120" ry="150" class="fill-gray" opacity="0.8"/>
    <path class="ink" d="M74 98c16-34 46-58 92-70 52-12 100-6 136 24 34 30 50 72 48 132-2 48-18 88-48 118-34 34-76 50-126 48-48-2-90-18-120-54-24-28-38-64-38-112 0-34 18-58 56-86"/>
    <circle cx="138" cy="166" r="24" class="fill-paper"/>
    <circle cx="228" cy="166" r="24" class="fill-paper"/>
    <circle cx="138" cy="166" r="24" class="ink"/>
    <circle cx="228" cy="166" r="24" class="ink"/>
    <circle cx="136" cy="168" r="9" fill="#121212"/>
    <circle cx="226" cy="168" r="9" fill="#121212"/>
    <path class="ink" d="M118 126c18-6 34-6 50 2M214 126c18-8 34-8 52 0"/>
    <path class="ink" d="M126 236c20-8 42-10 66-6 14 2 28 8 44 20M174 236c8 10 18 12 30 2"/>
    <path class="soft" d="M92 54c32-14 64-18 98-16M118 314c18 8 36 12 58 10M208 314c22 8 42 8 64 0"/>
    <path class="fill-red" d="M332 150c12-18 34-22 52-12 18 10 22 32 12 50-8 16-30 22-48 14-20-8-26-30-16-52Z"/>
    <path class="ink" d="M332 150c12-18 34-22 52-12 18 10 22 32 12 50-8 16-30 22-48 14-20-8-26-30-16-52Z"/>
    <path class="ink" d="M346 160c10-4 20-4 30 4M344 182c8 6 20 8 34 2"/>
    <path class="fill-yellow" d="M322 260l28-34 34 26-30 32Z"/>
    <path class="ink" d="M322 260l28-34 34 26-30 32Z"/>
    <path class="ink" d="M336 248c8 0 14 2 18 8M332 266c8 4 16 4 24 0"/>
  </g>

  <path class="ink" d="M304 178h38M1050 178h34M738 132c10-12 24-18 44-18 16 0 32 6 46 18"/>
  <path class="soft" d="M220 258c42 10 84 12 128 4M640 152c40 18 96 18 136 0M526 648c88 14 184 14 272 0"/>
  <path class="soft" d="M244 372c60 6 120 6 178-4M282 564c74 10 154 6 226-12"/>
</svg>
